<?xml version="1.0" encoding="iso-8859-1"?>
<!-- Generator: Adobe Illustrator 19.0.0, SVG Export Plug-In . SVG Version: 6.00 Build 0)  -->
<svg version="1.1" id="Layer_1" xmlns="http://www.w3.org/2000/svg" xmlns:xlink="http://www.w3.org/1999/xlink" x="0px" y="0px"
	 viewBox="0 0 496.2 496.2" style="enable-background:new 0 0 496.2 496.2;" xml:space="preserve">
<path style="fill:#FABC3D;" d="M496.2,248.1C496.2,111.1,385.1,0,248.1,0S0,111.1,0,248.1s111.1,248.1,248.1,248.1
	S496.2,385.1,496.2,248.1z"/>
<polygon style="fill:#565656;" points="306,226.3 290,212.1 205.3,212.1 189.3,226.3 "/>
<g>
	<path style="fill:#3A3A3C;" d="M393.9,330.2c0,0-71-55-87.9-103.9H189.3c-16.9,48.8-87.9,103.9-87.9,103.9H393.9z"/>
	<polygon style="fill:#3A3A3C;" points="285.6,188.6 209.7,188.6 205.3,212.1 290,212.1 	"/>
</g>
<rect x="101.4" y="330.2" style="fill:#2C2C2D;" width="292.5" height="10.9"/>
<rect x="91.2" y="340.8" style="fill:#3A3A3C;" width="312.9" height="35.4"/>
<path style="fill:#262626;" d="M430.2,179.3c-7.5-15.2-89.1-59.3-182-59.3c-93.1,0-174.8,44-182.3,59.3c-6.8,13.8,3.9,54.9,5.1,59.5
	c0.4,1.3,1.7,2.2,3.1,1.9l89.1-16.3c1.3-0.2,2.2-1.4,2.2-2.7l-1.8-42.5c0.8-14.8,9.3-17,14.2-17c0.6,0,1,0,1.1,0s0.2,0,0.3,0l69,0.9
	l68.7-0.9c0.1,0,0.2,0,0.3,0c0.1,0,0.5-0.1,1.1-0.1c5,0,13.4,2.2,14.2,17l-1.8,42.5c-0.1,1.3,0.9,2.5,2.2,2.7l89.1,16.3
	c0.2,0,0.3,0,0.5,0c1.2,0,2.3-0.8,2.6-2C426.3,234.2,436.9,193.1,430.2,179.3z"/>
<g>
	<path style="fill:#3A3A3C;" d="M307.2,134.9L307.2,134.9c-4.9,0-8.9,4-8.9,8.8c0,7.8-1.8,20.6-5.1,24.5c-4.5,5.4-16.3,5.7-42.7,5.7
		c-0.2,0-5.6,0-5.8,0c-26.3,0-38.2-0.3-42.7-5.7c-3.4-4.1-5-17.1-5.1-24.5c0-4.9-4-8.8-8.9-8.8l0,0c-4.9,0-8.9,4-8.8,8.9
		c0,4.2,0.5,25.4,9.1,35.8c9.8,11.8,25.1,12.1,55.1,12.1c0.6,0,7.6,0,8.2,0c30,0,45.3-0.2,55.1-12.1c8.6-10.4,9.1-31.7,9.1-35.8
		C316.1,138.9,312.1,134.9,307.2,134.9z"/>
	<path style="fill:#3A3A3C;" d="M433.4,207.7L331,188.5c-1.7-0.3-3.3,0.8-3.6,2.5l-6.1,32.6c-0.1,0.8,0,1.6,0.5,2.3s1.2,1.1,2,1.3
		l102.4,19.2c0.2,0,0.4,0.1,0.6,0.1c0.6,0,1.2-0.2,1.7-0.5c0.7-0.5,1.1-1.2,1.3-2l6.1-32.6C436.2,209.6,435.1,208,433.4,207.7z"/>
	<path style="fill:#3A3A3C;" d="M62.8,207.7l102.4-19.2c1.7-0.3,3.3,0.8,3.6,2.5l6.1,32.6c0.2,0.8,0,1.6-0.5,2.3s-1.2,1.1-2,1.3
		L70,246.4c-0.2,0-0.4,0.1-0.6,0.1c-0.6,0-1.2-0.2-1.7-0.5c-0.7-0.5-1.1-1.2-1.3-2l-6.1-32.6C60,209.6,61.1,208,62.8,207.7z"/>
</g>
<path style="fill:#262626;" d="M180.8,267.1c0-30.9,30.3-34,65.5-34s65.5,3.1,65.5,34c0,49.4-30.3,68.3-65.5,68.3
	C211.1,335.5,180.8,316.6,180.8,267.1z"/>
<ellipse style="fill:#DBDBD3;" cx="246.3" cy="267.1" rx="65.5" ry="52.4"/>
<ellipse style="fill:#C6C6C4;" cx="246.3" cy="267.1" rx="38.2" ry="30.6"/>
<ellipse style="fill:#DBDBD3;" cx="246.3" cy="267.1" rx="34.7" ry="27.8"/>
<g>
	<ellipse style="fill:#C4B596;" cx="246.3" cy="267.1" rx="27" ry="21.6"/>
	<ellipse style="fill:#C4B596;" cx="246.3" cy="225.4" rx="8.5" ry="7.8"/>
</g>
<path style="fill:#B2A184;" d="M246.3,231.5c4.7,0,7.1-1.7,7.1-1.7c-1.5,2.1-4.1,3.4-7.1,3.4s-5.5-1.4-7.1-3.4
	C239.2,229.8,241.6,231.5,246.3,231.5z"/>
<ellipse style="fill:#C4B596;" cx="246.3" cy="308.3" rx="8.5" ry="7.8"/>
<path style="fill:#B2A184;" d="M246.3,314.4c4.7,0,7.1-1.7,7.1-1.7c-1.5,2.1-4.1,3.4-7.1,3.4s-5.5-1.4-7.1-3.4
	C239.2,312.6,241.6,314.4,246.3,314.4z"/>
<ellipse style="fill:#C4B596;" cx="195.1" cy="265.4" rx="8.5" ry="7.8"/>
<path style="fill:#B2A184;" d="M195.1,271.5c4.7,0,7.1-1.7,7.1-1.7c-1.5,2.1-4.1,3.4-7.1,3.4s-5.5-1.4-7.1-3.4
	C188.1,269.7,190.4,271.5,195.1,271.5z"/>
<path style="fill:#C4B596;" d="M290.2,265.4c0-4.3,3.8-7.8,8.5-7.8s8.5,3.5,8.5,7.8s-3.8,7.8-8.5,7.8
	C294,273.2,290.2,269.7,290.2,265.4z"/>
<path style="fill:#B2A184;" d="M298.7,271.5c4.7,0,7.1-1.7,7.1-1.7c-1.5,2.1-4.1,3.4-7.1,3.4c-2.9,0-5.5-1.4-7.1-3.4
	C291.6,269.7,294,271.5,298.7,271.5z"/>
<ellipse style="fill:#C4B596;" cx="291.5" cy="286.1" rx="8.5" ry="7.8"/>
<path style="fill:#B2A184;" d="M291.5,292.2c4.7,0,7.1-1.7,7.1-1.7c-1.5,2.1-4.1,3.4-7.1,3.4c-2.9,0-5.5-1.4-7.1-3.4
	C284.4,290.4,286.8,292.2,291.5,292.2z"/>
<ellipse style="fill:#C4B596;" cx="200.7" cy="286.1" rx="8.5" ry="7.8"/>
<path style="fill:#B2A184;" d="M200.7,292.2c4.7,0,7.1-1.7,7.1-1.7c-1.5,2.1-4.1,3.4-7.1,3.4c-2.9,0-5.5-1.4-7.1-3.4
	C193.7,290.4,196,292.2,200.7,292.2z"/>
<ellipse style="fill:#C4B596;" cx="272" cy="302.3" rx="8.5" ry="7.8"/>
<path style="fill:#B2A184;" d="M272,308.4c4.7,0,7.1-1.7,7.1-1.7c-1.5,2.1-4.1,3.4-7.1,3.4c-2.9,0-5.5-1.4-7.1-3.4
	C265,306.6,267.3,308.4,272,308.4z"/>
<ellipse style="fill:#C4B596;" cx="219.7" cy="302.3" rx="8.5" ry="7.8"/>
<path style="fill:#B2A184;" d="M219.7,308.4c4.7,0,7.1-1.7,7.1-1.7c-1.5,2.1-4.1,3.4-7.1,3.4c-2.9,0-5.5-1.4-7.1-3.4
	C212.6,306.6,215,308.4,219.7,308.4z"/>
<ellipse style="fill:#C4B596;" cx="272.6" cy="231.3" rx="8.5" ry="7.8"/>
<path style="fill:#B2A184;" d="M272.6,237.4c4.7,0,7.1-1.7,7.1-1.7c-1.5,2.1-4.1,3.4-7.1,3.4s-5.5-1.4-7.1-3.4
	C265.6,235.7,267.9,237.4,272.6,237.4z"/>
<ellipse style="fill:#C4B596;" cx="290.4" cy="245.3" rx="8.5" ry="7.8"/>
<path style="fill:#B2A184;" d="M290.4,251.4c4.7,0,7.1-1.7,7.1-1.7c-1.5,2.1-4.1,3.4-7.1,3.4s-5.5-1.4-7.1-3.4
	C283.3,249.6,285.7,251.4,290.4,251.4z"/>
<ellipse style="fill:#C4B596;" cx="220.5" cy="231.3" rx="8.5" ry="7.8"/>
<path style="fill:#B2A184;" d="M220.5,237.4c4.7,0,7.1-1.7,7.1-1.7c-1.5,2.1-4.1,3.4-7.1,3.4s-5.5-1.4-7.1-3.4
	C213.4,235.7,215.8,237.4,220.5,237.4z"/>
<ellipse style="fill:#C4B596;" cx="202.3" cy="245.3" rx="8.5" ry="7.8"/>
<path style="fill:#B2A184;" d="M202.3,251.4c4.7,0,7.1-1.7,7.1-1.7c-1.5,2.1-4.1,3.4-7.1,3.4c-2.9,0-5.5-1.4-7.1-3.4
	C195.2,249.6,197.6,251.4,202.3,251.4z"/>
<path style="fill:#B5B5B1;" d="M290.7,299.5c3.7,5.4,2.7,7,1,8.2s-3.6,1.5-7.3-3.9c-3.7-5.4-7.7-14.6-6-15.8
	C280.2,286.8,287.1,294.1,290.7,299.5z"/>
<g>
</g>
<g>
</g>
<g>
</g>
<g>
</g>
<g>
</g>
<g>
</g>
<g>
</g>
<g>
</g>
<g>
</g>
<g>
</g>
<g>
</g>
<g>
</g>
<g>
</g>
<g>
</g>
<g>
</g>
</svg>
